<?xml version="1.0" standalone="no"?><!DOCTYPE svg PUBLIC "-//W3C//DTD SVG 1.1//EN" "http://www.w3.org/Graphics/SVG/1.1/DTD/svg11.dtd"><svg t="1576719092427" class="icon" viewBox="0 0 1047 1024" version="1.1" xmlns="http://www.w3.org/2000/svg" p-id="2626" xmlns:xlink="http://www.w3.org/1999/xlink" width="130.875" height="128"><defs><style type="text/css"></style></defs><path d="M404.557419 801.036107A404.555768 404.555768 0 0 1 0.001652 404.736579a379.787047 379.787047 0 0 1 41.2812-173.381043 24.76872 24.76872 0 0 1 24.768721-24.768721h33.02496l173.381044 156.868563 107.331122-107.331122-156.868563-156.868563a49.537441 49.537441 0 0 1-8.25624-33.02496c0-16.51248 8.25624-24.76872 24.76872-33.024961a371.530807 371.530807 0 0 1 165.124803-33.02496 404.555768 404.555768 0 0 1 396.299527 404.555767c0 16.51248-8.25624 57.793681-16.51248 107.331122v16.51248c0 24.76872-24.76872 41.281201-41.281201 33.024961a33.024961 33.024961 0 0 1-33.02496-49.537441V495.555221a536.65561 536.65561 0 0 0 16.51248-90.818642A313.737126 313.737126 0 0 0 404.557419 82.743213H330.251258l132.099842 140.356083c16.51248 16.51248 16.51248 49.537441 0 57.793681l-165.124803 165.124803a41.281201 41.281201 0 0 1-49.537441 8.25624L90.820293 322.174178a255.943445 255.943445 0 0 0-8.25624 82.562401 313.737126 313.737126 0 0 0 321.993366 313.737126l123.843602-24.76872a49.537441 49.537441 0 0 1 57.793682 16.51248 49.537441 49.537441 0 0 1-16.512481 57.793681 396.299527 396.299527 0 0 1-165.124803 33.024961z" p-id="2627" fill="#88147f"></path><path d="M858.650628 1023.954591a181.637283 181.637283 0 0 1-123.843603-49.537441L520.144781 759.754906a41.281201 41.281201 0 0 1 57.793681-57.793681l214.662244 214.662244a115.587362 115.587362 0 0 0 140.356083 0 99.074882 99.074882 0 0 0 0-140.356083L710.038305 553.348902a41.281201 41.281201 0 1 1 57.793681-57.793681L990.75047 718.473705a173.381043 173.381043 0 0 1 0 255.943445 189.893524 189.893524 0 0 1-132.099842 49.537441z" p-id="2628" fill="#88147f"></path></svg>