<?xml version="1.0" standalone="no"?><!DOCTYPE svg PUBLIC "-//W3C//DTD SVG 1.1//EN" "http://www.w3.org/Graphics/SVG/1.1/DTD/svg11.dtd"><svg t="1576634669042" class="icon" viewBox="0 0 1024 1024" version="1.1" xmlns="http://www.w3.org/2000/svg" p-id="9082" xmlns:xlink="http://www.w3.org/1999/xlink" width="128" height="128"><defs><style type="text/css"></style></defs><path d="M443.0848 106.0352L397.568 151.552h183.3472V106.0352zM580.9152 151.552h45.5168l-45.5168-45.5168z" fill="#A35C16" p-id="9083"></path><path d="M397.568 151.552v75.5456h45.5168V106.0352zM626.432 151.552v75.5456h-45.5168V106.0352z" fill="#E17C1F" p-id="9084"></path><path d="M512 565.2736H0v323.5072c0 16.0512 13.1328 29.184 29.184 29.184h965.632c16.0512 0 29.184-13.1328 29.184-29.184V565.2736H512z" fill="#C2630F" p-id="9085"></path><path d="M0 427.8528l439.04 105.8048h23.3984v-304.64H0z" fill="#E17C1F" p-id="9086"></path><path d="M0 219.904h462.4384v9.1136H0z" fill="#EF9552" p-id="9087"></path><path d="M563.3792 533.6576h21.5808L1024 427.8528V229.0176H563.3792z" fill="#E17C1F" p-id="9088"></path><path d="M563.3792 219.904H1024v9.1136H563.3792z" fill="#EF9552" p-id="9089"></path><path d="M462.4384 533.6576h100.9408v-304.64h-100.9408z" fill="#A35C16" p-id="9090"></path><path d="M462.4384 219.904h100.9408v9.1136h-100.9408z" fill="#E5802E" p-id="9091"></path><path d="M584.96 533.6576H512v31.616h512v-137.4208zM439.04 533.6576L0 427.8528v137.4208h462.4384v-31.616zM462.4384 533.6576H512v31.616h-49.5616z" fill="#A35C16" p-id="9092"></path><path d="M512 533.6576h51.3792v31.616H512z" fill="#D2D1C1" p-id="9093"></path><path d="M462.4384 573.7984v62.208a50.4832 50.4832 0 0 0 100.9664 0v-62.208h-100.9664z" fill="#B5540B" p-id="9094"></path><path d="M462.4384 546.56v-62.208a50.4832 50.4832 0 0 1 100.9664 0v62.208h-100.9664z" fill="#E5802E" p-id="9095"></path><path d="M462.4384 552.9088v-62.208a50.4832 50.4832 0 0 1 100.9664 0v62.208h-100.9664z" fill="#CE6D17" p-id="9096"></path><path d="M563.3792 525.1584H439.04v40.1152h147.7632v-40.1152z" fill="#E5802E" p-id="9097"></path><path d="M462.4384 565.2736v62.208a50.4832 50.4832 0 0 0 100.9664 0v-62.208h-100.9664z" fill="#D2D1C1" p-id="9098"></path><path d="M439.04 565.2736v10.9568h147.7632v-10.9568H512z" fill="#CE6D17" p-id="9099"></path></svg>